<svg xmlns="http://www.w3.org/2000/svg" xmlns:xlink="http://www.w3.org/1999/xlink" width="500" zoomAndPan="magnify" viewBox="0 0 375 374.999991" height="500" preserveAspectRatio="xMidYMid meet" version="1.0"><defs><g/><clipPath id="43031dd99d"><path d="M 187.5 0 C 83.945312 0 0 83.945312 0 187.5 C 0 291.054688 83.945312 375 187.5 375 C 291.054688 375 375 291.054688 375 187.5 C 375 83.945312 291.054688 0 187.5 0 Z M 187.5 0 " clip-rule="nonzero"/></clipPath><clipPath id="48437eb104"><path d="M 0 0 L 375 0 L 375 375 L 0 375 Z M 0 0 " clip-rule="nonzero"/></clipPath><clipPath id="e0fe4be51c"><path d="M 187.5 0 C 83.945312 0 0 83.945312 0 187.5 C 0 291.054688 83.945312 375 187.5 375 C 291.054688 375 375 291.054688 375 187.5 C 375 83.945312 291.054688 0 187.5 0 Z M 187.5 0 " clip-rule="nonzero"/></clipPath><clipPath id="87256cd73f"><rect x="0" width="375" y="0" height="375"/></clipPath><clipPath id="c405d4043f"><path d="M 43.1875 114 L 331.9375 114 L 331.9375 261 L 43.1875 261 Z M 43.1875 114 " clip-rule="nonzero"/></clipPath><clipPath id="751dc0f08f"><path d="M 0.558594 0.359375 L 150.558594 0.359375 L 150.558594 35 L 0.558594 35 Z M 0.558594 0.359375 " clip-rule="nonzero"/></clipPath><clipPath id="27d91503cb"><rect x="0" width="151" y="0" height="37"/></clipPath><clipPath id="607682a947"><rect x="0" width="259" y="0" height="94"/></clipPath></defs><g clip-path="url(#43031dd99d)"><g transform="matrix(1, 0, 0, 1, 0, 0)"><g clip-path="url(#87256cd73f)"><g clip-path="url(#48437eb104)"><g clip-path="url(#e0fe4be51c)"><rect x="-82.5" width="540" fill="#5f0c0d" height="539.999987" y="-82.499998" fill-opacity="1"/></g></g></g></g></g><g clip-path="url(#c405d4043f)"><path fill="#ffffff" d="M 329.527344 114.355469 L 45.261719 114.355469 C 44.019531 114.355469 43.1875 115.183594 43.1875 116.429688 L 43.1875 258.5625 C 43.1875 259.808594 44.019531 260.636719 45.261719 260.636719 L 329.734375 260.636719 C 330.980469 260.636719 331.808594 259.808594 331.808594 258.5625 L 331.808594 116.429688 C 331.601562 115.390625 330.773438 114.355469 329.527344 114.355469 Z M 327.453125 256.695312 L 47.335938 256.695312 L 47.335938 118.503906 L 327.660156 118.503906 L 327.660156 256.695312 Z M 327.453125 256.695312 " fill-opacity="1" fill-rule="nonzero"/></g><g transform="matrix(1, 0, 0, 1, 112, 237)"><g clip-path="url(#27d91503cb)"><g clip-path="url(#751dc0f08f)"><path fill="#5f0c0d" d="M 9.367188 0.996094 L 141.601562 0.996094 C 143.84375 0.996094 145.992188 1.886719 147.578125 3.46875 C 149.160156 5.054688 150.050781 7.203125 150.050781 9.445312 L 150.050781 26.34375 C 150.050781 28.585938 149.160156 30.734375 147.578125 32.320312 C 145.992188 33.902344 143.84375 34.792969 141.601562 34.792969 L 9.367188 34.792969 C 4.699219 34.792969 0.917969 31.011719 0.917969 26.34375 L 0.917969 9.445312 C 0.917969 4.777344 4.699219 0.996094 9.367188 0.996094 Z M 9.367188 0.996094 " fill-opacity="1" fill-rule="nonzero"/></g><g fill="#ffffff" fill-opacity="1"><g transform="translate(8.033216, 23.824269)"><g><path d="M 4.59375 0.171875 C 3.101562 0.171875 1.910156 -0.015625 1.015625 -0.390625 L 1.015625 -2.09375 C 2.117188 -1.664062 3.25 -1.453125 4.40625 -1.453125 C 5.375 -1.453125 6.070312 -1.566406 6.5 -1.796875 C 6.9375 -2.023438 7.15625 -2.445312 7.15625 -3.0625 C 7.15625 -3.445312 7.0625 -3.753906 6.875 -3.984375 C 6.695312 -4.222656 6.398438 -4.425781 5.984375 -4.59375 C 5.566406 -4.757812 4.941406 -4.945312 4.109375 -5.15625 C 2.878906 -5.476562 2.015625 -5.882812 1.515625 -6.375 C 1.015625 -6.875 0.765625 -7.554688 0.765625 -8.421875 C 0.765625 -9.441406 1.132812 -10.234375 1.875 -10.796875 C 2.625 -11.359375 3.71875 -11.640625 5.15625 -11.640625 C 5.789062 -11.640625 6.398438 -11.59375 6.984375 -11.5 C 7.566406 -11.414062 8.046875 -11.304688 8.421875 -11.171875 L 8.421875 -9.46875 C 7.515625 -9.8125 6.515625 -9.984375 5.421875 -9.984375 C 4.523438 -9.984375 3.847656 -9.863281 3.390625 -9.625 C 2.941406 -9.382812 2.71875 -8.984375 2.71875 -8.421875 C 2.71875 -8.078125 2.800781 -7.800781 2.96875 -7.59375 C 3.132812 -7.382812 3.410156 -7.195312 3.796875 -7.03125 C 4.179688 -6.875 4.757812 -6.703125 5.53125 -6.515625 C 6.875 -6.171875 7.804688 -5.722656 8.328125 -5.171875 C 8.847656 -4.628906 9.109375 -3.925781 9.109375 -3.0625 C 9.109375 -2.039062 8.722656 -1.242188 7.953125 -0.671875 C 7.191406 -0.109375 6.070312 0.171875 4.59375 0.171875 Z M 4.59375 0.171875 "/></g></g></g><g fill="#ffffff" fill-opacity="1"><g transform="translate(17.906354, 23.824269)"><g><path d="M 2.25 -11.796875 L 4.359375 -11.796875 L 4.359375 -10.203125 L 2.25 -10.203125 Z M 2.40625 -6.953125 L 1.125 -6.953125 L 1.296875 -8.4375 L 4.34375 -8.4375 L 4.34375 0 L 2.40625 0 Z M 2.40625 -6.953125 "/></g></g></g><g fill="#ffffff" fill-opacity="1"><g transform="translate(23.385503, 23.824269)"><g><path d="M 0.765625 -8.4375 L 2.703125 -8.4375 L 4.171875 -2.296875 L 5.8125 -7.40625 L 5.8125 -8.4375 L 7.296875 -8.4375 L 9.125 -2.296875 L 10.59375 -8.4375 L 12.515625 -8.4375 L 10.296875 0 L 8.46875 0 L 6.671875 -5.515625 L 4.84375 0 L 2.984375 0 Z M 0.765625 -8.4375 "/></g></g></g><g fill="#ffffff" fill-opacity="1"><g transform="translate(36.656409, 23.824269)"><g><path d="M 2.25 -11.796875 L 4.359375 -11.796875 L 4.359375 -10.203125 L 2.25 -10.203125 Z M 2.40625 -6.953125 L 1.125 -6.953125 L 1.296875 -8.4375 L 4.34375 -8.4375 L 4.34375 0 L 2.40625 0 Z M 2.40625 -6.953125 "/></g></g></g><g fill="#ffffff" fill-opacity="1"><g transform="translate(42.135558, 23.824269)"><g><path d="M 5.265625 0.171875 C 3.785156 0.171875 2.664062 -0.195312 1.90625 -0.9375 C 1.144531 -1.6875 0.765625 -2.78125 0.765625 -4.21875 C 0.765625 -5.664062 1.171875 -6.757812 1.984375 -7.5 C 2.804688 -8.238281 3.9375 -8.609375 5.375 -8.609375 C 5.945312 -8.609375 6.429688 -8.566406 6.828125 -8.484375 C 7.222656 -8.398438 7.609375 -8.269531 7.984375 -8.09375 L 7.984375 -6.65625 C 7.367188 -6.96875 6.625 -7.125 5.75 -7.125 C 4.738281 -7.125 3.976562 -6.894531 3.46875 -6.4375 C 2.96875 -5.988281 2.71875 -5.25 2.71875 -4.21875 C 2.71875 -3.195312 2.953125 -2.453125 3.421875 -1.984375 C 3.890625 -1.523438 4.65625 -1.296875 5.71875 -1.296875 C 6.550781 -1.296875 7.316406 -1.457031 8.015625 -1.78125 L 8.015625 -0.296875 C 7.222656 0.015625 6.304688 0.171875 5.265625 0.171875 Z M 5.265625 0.171875 "/></g></g></g><g fill="#ffffff" fill-opacity="1"><g transform="translate(50.905754, 23.824269)"><g><path d="M 1.125 -12 L 3.0625 -12 L 3.0625 -7.609375 C 3.4375 -7.921875 3.878906 -8.164062 4.390625 -8.34375 C 4.910156 -8.519531 5.484375 -8.609375 6.109375 -8.609375 C 7.171875 -8.609375 7.957031 -8.351562 8.46875 -7.84375 C 8.976562 -7.332031 9.234375 -6.539062 9.234375 -5.46875 L 9.234375 0 L 7.3125 0 L 7.3125 -5.375 C 7.3125 -6.03125 7.171875 -6.488281 6.890625 -6.75 C 6.617188 -7.007812 6.140625 -7.140625 5.453125 -7.140625 C 5.023438 -7.140625 4.585938 -7.046875 4.140625 -6.859375 C 3.703125 -6.671875 3.34375 -6.429688 3.0625 -6.140625 L 3.0625 0 L 1.125 0 Z M 1.125 -12 "/></g></g></g><g fill="#ffffff" fill-opacity="1"><g transform="translate(61.188047, 23.824269)"><g><path d="M 3.75 0.171875 C 2.894531 0.171875 2.179688 -0.046875 1.609375 -0.484375 C 1.046875 -0.929688 0.765625 -1.570312 0.765625 -2.40625 C 0.765625 -3.226562 1.046875 -3.878906 1.609375 -4.359375 C 2.171875 -4.847656 3.015625 -5.09375 4.140625 -5.09375 L 6.859375 -5.09375 L 6.859375 -5.46875 C 6.859375 -5.882812 6.796875 -6.207031 6.671875 -6.4375 C 6.546875 -6.664062 6.316406 -6.832031 5.984375 -6.9375 C 5.648438 -7.039062 5.175781 -7.09375 4.5625 -7.09375 C 3.5625 -7.09375 2.628906 -6.945312 1.765625 -6.65625 L 1.765625 -8.09375 C 2.160156 -8.25 2.628906 -8.375 3.171875 -8.46875 C 3.722656 -8.5625 4.300781 -8.609375 4.90625 -8.609375 C 6.164062 -8.609375 7.113281 -8.351562 7.75 -7.84375 C 8.382812 -7.332031 8.703125 -6.523438 8.703125 -5.421875 L 8.703125 0 L 7.046875 0 L 6.921875 -0.859375 C 6.566406 -0.515625 6.132812 -0.253906 5.625 -0.078125 C 5.113281 0.0859375 4.488281 0.171875 3.75 0.171875 Z M 4.265625 -1.203125 C 4.828125 -1.203125 5.328125 -1.296875 5.765625 -1.484375 C 6.203125 -1.679688 6.566406 -1.953125 6.859375 -2.296875 L 6.859375 -3.765625 L 4.1875 -3.765625 C 3.613281 -3.765625 3.195312 -3.65625 2.9375 -3.4375 C 2.6875 -3.226562 2.5625 -2.894531 2.5625 -2.4375 C 2.5625 -2.007812 2.703125 -1.695312 2.984375 -1.5 C 3.273438 -1.300781 3.703125 -1.203125 4.265625 -1.203125 Z M 4.265625 -1.203125 "/></g></g></g><g fill="#ffffff" fill-opacity="1"><g transform="translate(70.918857, 23.824269)"><g><path d="M 2.25 -11.796875 L 4.359375 -11.796875 L 4.359375 -10.203125 L 2.25 -10.203125 Z M 2.40625 -6.953125 L 1.125 -6.953125 L 1.296875 -8.4375 L 4.34375 -8.4375 L 4.34375 0 L 2.40625 0 Z M 2.40625 -6.953125 "/></g></g></g><g fill="#ffffff" fill-opacity="1"><g transform="translate(76.398007, 23.824269)"><g/></g></g><g fill="#ffffff" fill-opacity="1"><g transform="translate(82.980098, 23.824269)"><g><path d="M 1.125 -11.46875 L 3.0625 -11.46875 L 3.0625 -1.5 L 8.9375 -1.5 L 8.9375 0 L 1.125 0 Z M 1.125 -11.46875 "/></g></g></g><g fill="#ffffff" fill-opacity="1"><g transform="translate(92.319555, 23.824269)"><g><path d="M 5.15625 0.171875 C 2.226562 0.171875 0.765625 -1.289062 0.765625 -4.21875 C 0.765625 -7.144531 2.226562 -8.609375 5.15625 -8.609375 C 8.101562 -8.609375 9.578125 -7.144531 9.578125 -4.21875 C 9.578125 -1.289062 8.101562 0.171875 5.15625 0.171875 Z M 5.15625 -1.453125 C 6.050781 -1.453125 6.679688 -1.664062 7.046875 -2.09375 C 7.421875 -2.519531 7.609375 -3.226562 7.609375 -4.21875 C 7.609375 -5.1875 7.421875 -5.882812 7.046875 -6.3125 C 6.679688 -6.738281 6.050781 -6.953125 5.15625 -6.953125 C 4.28125 -6.953125 3.65625 -6.738281 3.28125 -6.3125 C 2.90625 -5.882812 2.71875 -5.1875 2.71875 -4.21875 C 2.71875 -3.226562 2.90625 -2.519531 3.28125 -2.09375 C 3.65625 -1.664062 4.28125 -1.453125 5.15625 -1.453125 Z M 5.15625 -1.453125 "/></g></g></g><g fill="#ffffff" fill-opacity="1"><g transform="translate(102.655209, 23.824269)"><g><path d="M 1.125 -12 L 3.0625 -12 L 3.0625 -7.609375 C 3.4375 -7.921875 3.878906 -8.164062 4.390625 -8.34375 C 4.910156 -8.519531 5.484375 -8.609375 6.109375 -8.609375 C 7.171875 -8.609375 7.957031 -8.351562 8.46875 -7.84375 C 8.976562 -7.332031 9.234375 -6.539062 9.234375 -5.46875 L 9.234375 0 L 7.3125 0 L 7.3125 -5.375 C 7.3125 -6.03125 7.171875 -6.488281 6.890625 -6.75 C 6.617188 -7.007812 6.140625 -7.140625 5.453125 -7.140625 C 5.023438 -7.140625 4.585938 -7.046875 4.140625 -6.859375 C 3.703125 -6.671875 3.34375 -6.429688 3.0625 -6.140625 L 3.0625 0 L 1.125 0 Z M 1.125 -12 "/></g></g></g><g fill="#ffffff" fill-opacity="1"><g transform="translate(112.937502, 23.824269)"><g><path d="M 3.9375 0.171875 C 3.363281 0.171875 2.8125 0.132812 2.28125 0.0625 C 1.75 -0.0078125 1.3125 -0.113281 0.96875 -0.25 L 0.96875 -1.890625 C 1.351562 -1.734375 1.785156 -1.613281 2.265625 -1.53125 C 2.742188 -1.445312 3.21875 -1.40625 3.6875 -1.40625 C 4.375 -1.40625 4.851562 -1.460938 5.125 -1.578125 C 5.394531 -1.703125 5.53125 -1.9375 5.53125 -2.28125 C 5.53125 -2.582031 5.40625 -2.804688 5.15625 -2.953125 C 4.90625 -3.109375 4.4375 -3.289062 3.75 -3.5 L 3.21875 -3.6875 C 2.363281 -3.96875 1.738281 -4.28125 1.34375 -4.625 C 0.957031 -4.976562 0.765625 -5.5 0.765625 -6.1875 C 0.765625 -6.988281 1.046875 -7.59375 1.609375 -8 C 2.179688 -8.40625 3.078125 -8.609375 4.296875 -8.609375 C 4.753906 -8.609375 5.203125 -8.570312 5.640625 -8.5 C 6.085938 -8.4375 6.472656 -8.347656 6.796875 -8.234375 L 6.796875 -6.625 C 6.472656 -6.75 6.113281 -6.847656 5.71875 -6.921875 C 5.320312 -6.992188 4.945312 -7.03125 4.59375 -7.03125 C 3.9375 -7.03125 3.457031 -6.972656 3.15625 -6.859375 C 2.863281 -6.742188 2.71875 -6.535156 2.71875 -6.234375 C 2.71875 -5.953125 2.832031 -5.742188 3.0625 -5.609375 C 3.289062 -5.472656 3.734375 -5.300781 4.390625 -5.09375 L 4.78125 -4.96875 C 5.46875 -4.75 6 -4.53125 6.375 -4.3125 C 6.757812 -4.09375 7.035156 -3.828125 7.203125 -3.515625 C 7.378906 -3.203125 7.46875 -2.796875 7.46875 -2.296875 C 7.46875 -0.648438 6.289062 0.171875 3.9375 0.171875 Z M 3.9375 0.171875 "/></g></g></g><g fill="#ffffff" fill-opacity="1"><g transform="translate(121.191797, 23.824269)"><g><path d="M 1.125 -12 L 3.0625 -12 L 3.0625 -5.046875 L 6.609375 -8.4375 L 8.828125 -8.4375 L 5.390625 -5.03125 L 9.015625 0 L 6.96875 0 L 4.1875 -4 L 3.0625 -2.9375 L 3.0625 0 L 1.125 0 Z M 1.125 -12 "/></g></g></g><g fill="#ffffff" fill-opacity="1"><g transform="translate(130.975991, 23.824269)"><g><path d="M 2.25 -11.796875 L 4.359375 -11.796875 L 4.359375 -10.203125 L 2.25 -10.203125 Z M 2.40625 -6.953125 L 1.125 -6.953125 L 1.296875 -8.4375 L 4.34375 -8.4375 L 4.34375 0 L 2.40625 0 Z M 2.40625 -6.953125 "/></g></g></g><g fill="#ffffff" fill-opacity="1"><g transform="translate(136.455141, 23.824269)"><g><path d="M 4.34375 0.171875 C 3.445312 0.171875 2.773438 -0.0625 2.328125 -0.53125 C 1.878906 -1 1.65625 -1.660156 1.65625 -2.515625 L 1.65625 -6.921875 L 0.40625 -6.921875 L 0.40625 -8.4375 L 1.65625 -8.4375 L 1.65625 -10.375 L 3.578125 -10.96875 L 3.578125 -8.4375 L 5.8125 -8.4375 L 5.6875 -6.921875 L 3.578125 -6.921875 L 3.578125 -2.609375 C 3.578125 -2.128906 3.6875 -1.789062 3.90625 -1.59375 C 4.125 -1.394531 4.492188 -1.296875 5.015625 -1.296875 C 5.335938 -1.296875 5.675781 -1.359375 6.03125 -1.484375 L 6.03125 -0.109375 C 5.570312 0.078125 5.007812 0.171875 4.34375 0.171875 Z M 4.34375 0.171875 "/></g></g></g></g></g><g transform="matrix(1, 0, 0, 1, 59, 141)"><g clip-path="url(#607682a947)"><g fill="#ffffff" fill-opacity="1"><g transform="translate(0.588489, 67.445218)"><g><path d="M 27.6875 1.984375 C 23.644531 1.984375 19.664062 1.648438 15.75 0.984375 C 11.84375 0.328125 8.691406 -0.367188 6.296875 -1.109375 L 4.078125 -16.3125 C 7.046875 -15.320312 10.609375 -14.4375 14.765625 -13.65625 C 18.929688 -12.875 22.828125 -12.484375 26.453125 -12.484375 C 31.722656 -12.484375 34.359375 -14.085938 34.359375 -17.296875 C 34.359375 -18.617188 33.90625 -19.648438 33 -20.390625 C 32.09375 -21.128906 30.484375 -21.75 28.171875 -22.25 L 19.28125 -24.34375 C 14.007812 -25.582031 10.175781 -27.617188 7.78125 -30.453125 C 5.394531 -33.296875 4.203125 -37.398438 4.203125 -42.765625 C 4.203125 -48.859375 6.175781 -53.550781 10.125 -56.84375 C 14.082031 -60.132812 20.097656 -61.78125 28.171875 -61.78125 C 32.210938 -61.78125 36.066406 -61.472656 39.734375 -60.859375 C 43.398438 -60.242188 46.222656 -59.609375 48.203125 -58.953125 L 49.0625 -44 C 46.675781 -44.90625 43.6875 -45.707031 40.09375 -46.40625 C 36.507812 -47.101562 33.03125 -47.453125 29.65625 -47.453125 C 27.019531 -47.453125 25.144531 -47.0625 24.03125 -46.28125 C 22.925781 -45.5 22.375 -44.40625 22.375 -43 C 22.375 -41.6875 22.84375 -40.640625 23.78125 -39.859375 C 24.726562 -39.078125 26.359375 -38.4375 28.671875 -37.9375 L 37.328125 -35.96875 C 42.597656 -34.726562 46.425781 -32.6875 48.8125 -29.84375 C 51.195312 -27 52.390625 -22.941406 52.390625 -17.671875 C 52.390625 -4.566406 44.15625 1.984375 27.6875 1.984375 Z M 27.6875 1.984375 "/></g></g></g><g fill="#ffffff" fill-opacity="1"><g transform="translate(55.575435, 67.445218)"><g><path d="M 9.015625 0 L 9.015625 -16.1875 L 25.578125 -16.1875 L 25.578125 0 Z M 9.015625 0 "/></g></g></g><g fill="#ffffff" fill-opacity="1"><g transform="translate(90.173957, 67.445218)"><g><path d="M 62.78125 -61.421875 L 80.328125 -61.421875 L 68.578125 0 L 50.921875 0 L 41.03125 -27.921875 L 30.890625 0 L 13.34375 0 L 1.609375 -61.421875 L 19.53125 -61.421875 L 24.96875 -23.484375 L 39.046875 -61.421875 L 43.375 -61.421875 L 57.34375 -23.734375 Z M 62.78125 -61.421875 "/></g></g></g><g fill="#ffffff" fill-opacity="1"><g transform="translate(172.839721, 67.445218)"><g><path d="M 9.015625 0 L 9.015625 -16.1875 L 25.578125 -16.1875 L 25.578125 0 Z M 9.015625 0 "/></g></g></g><g fill="#ffffff" fill-opacity="1"><g transform="translate(207.438244, 67.445218)"><g><path d="M 30.15625 1.984375 C 11.863281 1.984375 2.71875 -8.640625 2.71875 -29.890625 C 2.71875 -51.148438 11.863281 -61.78125 30.15625 -61.78125 C 33.039062 -61.78125 35.863281 -61.453125 38.625 -60.796875 C 41.382812 -60.140625 43.546875 -59.441406 45.109375 -58.703125 L 46.09375 -43.375 C 44.695312 -44.195312 42.820312 -44.9375 40.46875 -45.59375 C 38.125 -46.257812 35.71875 -46.59375 33.25 -46.59375 C 28.789062 -46.59375 25.59375 -45.3125 23.65625 -42.75 C 21.726562 -40.195312 20.765625 -35.914062 20.765625 -29.90625 C 20.765625 -23.894531 21.726562 -19.609375 23.65625 -17.046875 C 25.59375 -14.492188 28.789062 -13.21875 33.25 -13.21875 C 35.96875 -13.21875 38.601562 -13.566406 41.15625 -14.265625 C 43.707031 -14.972656 45.804688 -15.738281 47.453125 -16.5625 L 44.984375 -0.859375 C 43.421875 -0.117188 41.28125 0.535156 38.5625 1.109375 C 35.84375 1.691406 33.039062 1.984375 30.15625 1.984375 Z M 30.15625 1.984375 "/></g></g></g></g></g></svg>